# xmcd
#
# Track frame offsets:
#	150
#	11030
#	23289
#	35140
#	50479
#	60792
#	70539
#	80437
#	90979
#	104448
#	117498
#	129716
#	141953
#	151756
#	168255
#	177246
#	187964
#	203855
#	217352
#	227531
#
# Disc length: 3162 seconds
#
# Revision: 1
# Processed by: cddbd v1.5.2PL0 Copyright (c) Steve Scherf et al.
# Submitted via: audiograbber 1.83.01
#
DISCID=070c5814
DTITLE=Compilation - Un air de guingette - CD 2
DYEAR=2005
DGENRE=Dance
TTITLE0=Jo Privat - Reine du musette
TTITLE1=Gus Viseur - Bourrasque
TTITLE2=Aimable  - La java bleue
TTITLE3=Georgette Plana - Tel qu'il est
TTITLE4=Primo Corchia - La Paloma
TTITLE5=Jacques Ferchit - A Paris
TTITLE6=Stephanie Rodriguez - C'était le bon temps
TTITLE7=Michel Pruvot - Refaire la java
TTITLE8=Diane May - Tarentelle musette
TTITLE9=Cyril Olmeta - Flonflons guinguettes
TTITLE10=Augusto Baldi - Les triolets
TTITLE11=Robert Ripa - Mon pot' le gitan
TTITLE12=Willy Hoffner et son oprchestre - Les paturages
TTITLE13=Aimable - Les plus belles valses musette
TTITLE14=Frédéric Loth - Rue des archives
TTITLE15=Musette orchestra - La java rose
TTITLE16=Sandra J. - Il me reste la chanson
TTITLE17=Ariane Lespar - Joyeuse guinguette
TTITLE18=Dédé la Bretelle - Ile de France
TTITLE19=Edouard Duleu - Polka des as
EXTD=
EXTT0=
EXTT1=
EXTT2=
EXTT3=
EXTT4=
EXTT5=
EXTT6=
EXTT7=
EXTT8=
EXTT9=
EXTT10=
EXTT11=
EXTT12=
EXTT13=
EXTT14=
EXTT15=
EXTT16=
EXTT17=
EXTT18=
EXTT19=
PLAYORDER=
